# xmcd
# Track frame offsets:
# 150
# 15882
# 36720
# 55187
# 74002
# 96357
# 114517
# 132432
# 151972
# 170825
# 191892
# 211290
# 229662
# 248555
#
# Disc length: 3566 seconds
# Revision: 0
# Processed by: cddbd v1.5PL3 Copyright (c) Steve Scherf et al.
# Submitted via: VisiTrax 2.9.9.202 - For more info visit www.synapsa.com
#
DISCID=c90dec0e
DTITLE=Monique Ford - Get A Maid
DYEAR=2004
DGENRE=Blues
TTITLE0=Get A Maid
TTITLE1=All Of My Love
TTITLE2=I Came To Party (ReMix)
TTITLE3=I Need To Be Loved
TTITLE4=Lonely Night
TTITLE5=Two Can Play This Game
TTITLE6=Think About Cheating
TTITLE7=Never A Day Go By
TTITLE8=Falling For You
TTITLE9=Thank You
TTITLE10=I Came To Party (Reg)
TTITLE11=Angel
TTITLE12=Naughty Thing
TTITLE13=Crazy About You
EXTD=
EXTT0=
EXTT1=
EXTT2=
EXTT3=
EXTT4=
EXTT5=
EXTT6=
EXTT7=
EXTT8=
EXTT9=
EXTT10=
EXTT11=
EXTT12=
EXTT13=
PLAYORDER=
